<svg id="layer_1" enable-background="new 0 0 32 32" viewBox="0 0 32 32" xmlns="http://www.w3.org/2000/svg"><path d="m3.5556641 7.4013672v6.5400391c-.0009766 6.9345703 4.3476562 13.2675781 10.8222656 15.7578125.5224609.2011718 1.0722656.3007812 1.6220703.3007812s1.0996094-.1005859 1.6230469-.3007812l.9707031-.3740234c5.984375-2.3017578 9.8515625-8.0908203 9.8505859-14.7470703v-7.1767579c0-.5371094-.4248047-.9785156-.9609375-.9990234-3.5947266-.1396484-7.2597656-1.5566406-10.8935547-4.2099609-.3515625-.2558594-.828125-.2558594-1.1796875 0-3.6347656 2.6533202-7.2998046 4.0703124-10.8935546 4.2099609-.5361328.0205078-.9609375.461914-.9609375.9990234zm2 .9355469c3.484375-.3291016 6.9902343-1.7080079 10.4443359-4.109375 3.453125 2.4013672 6.9599609 3.7802734 10.4443359 4.109375v6.2412109c.0009766 5.8222656-3.3623047 10.8779297-8.5693359 12.8798828l-.9697266.3740234c-.5839844.2246094-1.2275391.2246094-1.8095703 0-5.7070312-2.1953125-9.5410156-7.7773438-9.5400391-13.890625v-5.6044921z"/><path d="m13.9521484 20.1308594c.1875.1875.4414062.2929688.7070312.2929688s.5195312-.1054688.7070312-.2929688l6.2197266-6.2197266c.390625-.390625.390625-1.0234375 0-1.4140625s-1.0234489-.390625-1.4140625 0l-5.5126953 5.5126953-2.8310547-2.8320312c-.3906355-.390625-1.0234375-.390625-1.4140625 0s-.390625 1.0234375 0 1.4140625z"/></svg>